<?xml version="1.0" encoding="UTF-8"?>
<svg version="1.1" xmlns="http://www.w3.org/2000/svg" width="980" height="802">
<path d="M0 0 C11.206678 9.63964251 18.25359756 20.02976466 25.73828125 32.6484375 C29.27692778 38.59890421 33.00583564 44.4057692 36.8125 50.1875 C42.15831654 58.32040392 47.45044765 66.48406611 52.6875 74.6875 C57.08579678 81.57456866 61.48917507 88.45762115 65.9375 95.3125 C71.17361461 103.38267664 76.35357641 111.48848545 81.53515625 119.59375 C85.31947823 125.51079234 89.11459502 131.42031618 92.9375 137.3125 C98.17353944 145.38272593 103.35357597 153.48848475 108.53515625 161.59375 C112.31947823 167.51079234 116.11459502 173.42031618 119.9375 179.3125 C125.17353944 187.38272593 130.35357597 195.48848475 135.53515625 203.59375 C139.31947823 209.51079234 143.11459502 215.42031618 146.9375 221.3125 C152.17353944 229.38272593 157.35357597 237.48848475 162.53515625 245.59375 C166.31947823 251.51079234 170.11459502 257.42031618 173.9375 263.3125 C179.17353944 271.38272593 184.35357597 279.48848475 189.53515625 287.59375 C193.31947823 293.51079234 197.11459502 299.42031618 200.9375 305.3125 C206.17353944 313.38272593 211.35357597 321.48848475 216.53515625 329.59375 C220.31947823 335.51079234 224.11459502 341.42031618 227.9375 347.3125 C233.17353944 355.38272593 238.35357597 363.48848475 243.53515625 371.59375 C247.31947823 377.51079234 251.11459502 383.42031618 254.9375 389.3125 C260.17353944 397.38272593 265.35357597 405.48848475 270.53515625 413.59375 C274.31947823 419.51079234 278.11459502 425.42031618 281.9375 431.3125 C287.17353944 439.38272593 292.35357597 447.48848475 297.53515625 455.59375 C301.31947823 461.51079234 305.11459502 467.42031618 308.9375 473.3125 C314.17353944 481.38272593 319.35357597 489.48848475 324.53515625 497.59375 C328.31947823 503.51079234 332.11459502 509.42031618 335.9375 515.3125 C341.17353944 523.38272593 346.35357597 531.48848475 351.53515625 539.59375 C355.31947823 545.51079234 359.11459502 551.42031618 362.9375 557.3125 C368.17353944 565.38272593 373.35357597 573.48848475 378.53515625 581.59375 C382.74242128 588.17209229 386.96881382 594.7373305 391.21923828 601.2878418 C395.97174713 608.62056031 400.67439483 615.98521863 405.37036133 623.35424805 C408.59748957 628.41060816 411.84491501 633.44874055 415.17578125 638.4375 C426.88479532 655.99939757 433.0548926 671.70544548 432.875 693.1875 C432.86815186 694.45392334 432.86130371 695.72034668 432.85424805 697.02514648 C432.69123279 706.54535971 431.69430668 714.84832526 428.4375 723.8125 C428.05207031 724.89144531 427.66664063 725.97039063 427.26953125 727.08203125 C418.40418831 749.89092327 400.91746476 767.62453129 378.625 777.5625 C366.33892032 782.25983395 354.7414264 784.41200442 341.58224487 784.31586456 C340.15633854 784.32005056 338.7304365 784.32598545 337.30454373 784.33348203 C333.4198255 784.34891779 329.53551013 784.33981379 325.65079919 784.32637022 C321.41177392 784.31615775 317.17280703 784.32928888 312.93379021 784.33934355 C305.51539081 784.35374805 298.09710798 784.35337816 290.67870331 784.34315491 C279.64709441 784.3279938 268.61558343 784.33577608 257.58397514 784.34798814 C237.87891972 784.36903047 218.17391625 784.36723376 198.46885592 784.35567249 C181.22449132 784.34560478 163.98014574 784.34298601 146.73577881 784.34776306 C145.01906885 784.34822137 145.01906885 784.34822137 143.26767789 784.34868894 C138.62172639 784.34993432 133.9757749 784.35120793 129.32982343 784.352528 C85.7595258 784.3647602 42.18926122 784.35367616 -1.3810313 784.33214041 C-40.07890837 784.31315841 -78.77673277 784.31485694 -117.47460938 784.33398438 C-160.96592199 784.35540931 -204.45720541 784.36389265 -247.94852257 784.35153532 C-252.58594131 784.35025248 -257.22336006 784.34900111 -261.86077881 784.34776306 C-263.57351754 784.3472886 -263.57351754 784.3472886 -265.32085706 784.34680455 C-282.55312578 784.34225731 -299.78537337 784.34757083 -317.01763916 784.35768127 C-336.61420734 784.36912166 -356.21071553 784.36625181 -375.80727625 784.3445583 C-386.77076892 784.33282155 -397.73413163 784.33203428 -408.69762091 784.347143 C-416.02544218 784.35612656 -423.35315949 784.35050499 -430.68096539 784.33312392 C-434.85294379 784.32363023 -439.02466444 784.32031017 -443.19663453 784.33474785 C-447.00082865 784.34777809 -450.80453911 784.34202542 -454.60869876 784.32202521 C-456.60295893 784.31617071 -458.59724826 784.32967277 -460.5914638 784.34424233 C-480.25301142 784.18268666 -499.40869194 777.37389921 -514.5625 764.8125 C-515.40167969 764.13574219 -516.24085938 763.45898438 -517.10546875 762.76171875 C-533.48682613 748.86931179 -544.43062662 729.07908738 -547.5625 707.8125 C-549.6157712 673.22408457 -540.05982303 653.13635946 -521.5625 624.8125 C-520.63313928 623.37823566 -519.70467225 621.94339161 -518.77734375 620.5078125 C-517.48226304 618.50297225 -516.18656894 616.49856502 -514.88745117 614.49633789 C-510.75062189 608.11994324 -506.65621733 601.71663233 -502.5625 595.3125 C-497.65875338 587.64176154 -492.74045297 579.98127154 -487.78515625 572.34375 C-483.68476152 566.01673143 -479.62347833 559.66486834 -475.5625 553.3125 C-470.65872003 545.64178273 -465.7404531 537.98127175 -460.78515625 530.34375 C-456.68476152 524.01673143 -452.62347833 517.66486834 -448.5625 511.3125 C-443.65872003 503.64178273 -438.7404531 495.98127175 -433.78515625 488.34375 C-429.68476152 482.01673143 -425.62347833 475.66486834 -421.5625 469.3125 C-416.65872003 461.64178273 -411.7404531 453.98127175 -406.78515625 446.34375 C-402.68476152 440.01673143 -398.62347833 433.66486834 -394.5625 427.3125 C-389.65872003 419.64178273 -384.7404531 411.98127175 -379.78515625 404.34375 C-375.68476152 398.01673143 -371.62347833 391.66486834 -367.5625 385.3125 C-362.65872003 377.64178273 -357.7404531 369.98127175 -352.78515625 362.34375 C-348.68476152 356.01673143 -344.62347833 349.66486834 -340.5625 343.3125 C-335.65872003 335.64178273 -330.7404531 327.98127175 -325.78515625 320.34375 C-321.68476152 314.01673143 -317.62347833 307.66486834 -313.5625 301.3125 C-308.65872003 293.64178273 -303.7404531 285.98127175 -298.78515625 278.34375 C-294.68476152 272.01673143 -290.62347833 265.66486834 -286.5625 259.3125 C-281.65872003 251.64178273 -276.7404531 243.98127175 -271.78515625 236.34375 C-267.68476152 230.01673143 -263.62347833 223.66486834 -259.5625 217.3125 C-254.65872003 209.64178273 -249.7404531 201.98127175 -244.78515625 194.34375 C-240.68476152 188.01673143 -236.62347833 181.66486834 -232.5625 175.3125 C-227.65872003 167.64178273 -222.7404531 159.98127175 -217.78515625 152.34375 C-213.68476152 146.01673143 -209.62347833 139.66486834 -205.5625 133.3125 C-200.65872003 125.64178273 -195.7404531 117.98127175 -190.78515625 110.34375 C-186.68476152 104.01673143 -182.62347833 97.66486834 -178.5625 91.3125 C-173.65817919 83.64093671 -168.74091109 75.97855852 -163.78295898 68.34155273 C-160.39996936 63.1238912 -157.05238202 57.88413139 -153.70922852 52.64086914 C-150.33768953 47.35785672 -146.95256558 42.08363855 -143.5625 36.8125 C-142.98757813 35.91660156 -142.41265625 35.02070312 -141.8203125 34.09765625 C-135.98349115 25.0352231 -130.15868547 16.52399758 -122.5625 8.8125 C-121.95535156 8.13316406 -121.34820312 7.45382813 -120.72265625 6.75390625 C-90.49428371 -26.03077686 -34.00967978 -26.75936936 0 0 Z M-91.5625 43.8125 C-98.56315893 52.19054489 -104.35988363 61.45668157 -110.0546875 70.74609375 C-112.53518477 74.78971031 -115.09997658 78.77425882 -117.6875 82.75 C-122.34502176 89.91684598 -126.95955251 97.11048834 -131.5625 104.3125 C-136.46617988 111.98328086 -141.3845473 119.64372886 -146.33984375 127.28125 C-150.44023848 133.60826857 -154.50152167 139.96013166 -158.5625 146.3125 C-163.46627997 153.98321727 -168.3845469 161.64372825 -173.33984375 169.28125 C-177.44023848 175.60826857 -181.50152167 181.96013166 -185.5625 188.3125 C-190.46627997 195.98321727 -195.3845469 203.64372825 -200.33984375 211.28125 C-204.44023848 217.60826857 -208.50152167 223.96013166 -212.5625 230.3125 C-217.46627997 237.98321727 -222.3845469 245.64372825 -227.33984375 253.28125 C-231.44023848 259.60826857 -235.50152167 265.96013166 -239.5625 272.3125 C-244.46627997 279.98321727 -249.3845469 287.64372825 -254.33984375 295.28125 C-258.44023848 301.60826857 -262.50152167 307.96013166 -266.5625 314.3125 C-271.46627997 321.98321727 -276.3845469 329.64372825 -281.33984375 337.28125 C-285.44023848 343.60826857 -289.50152167 349.96013166 -293.5625 356.3125 C-298.46627997 363.98321727 -303.3845469 371.64372825 -308.33984375 379.28125 C-312.44023848 385.60826857 -316.50152167 391.96013166 -320.5625 398.3125 C-325.46627997 405.98321727 -330.3845469 413.64372825 -335.33984375 421.28125 C-339.44023848 427.60826857 -343.50152167 433.96013166 -347.5625 440.3125 C-352.46627997 447.98321727 -357.3845469 455.64372825 -362.33984375 463.28125 C-366.44023848 469.60826857 -370.50152167 475.96013166 -374.5625 482.3125 C-379.46627997 489.98321727 -384.3845469 497.64372825 -389.33984375 505.28125 C-393.44023848 511.60826857 -397.50152167 517.96013166 -401.5625 524.3125 C-406.46627997 531.98321727 -411.3845469 539.64372825 -416.33984375 547.28125 C-420.44023848 553.60826857 -424.50152167 559.96013166 -428.5625 566.3125 C-433.46627997 573.98321727 -438.3845469 581.64372825 -443.33984375 589.28125 C-447.44023848 595.60826857 -451.50152167 601.96013166 -455.5625 608.3125 C-460.46397742 615.97961551 -465.37880725 623.63727768 -470.33325195 631.27026367 C-473.07508948 635.49966674 -475.79823936 639.74062006 -478.51171875 643.98828125 C-479.21167969 645.08398438 -479.91164063 646.1796875 -480.6328125 647.30859375 C-481.9997757 649.44983316 -483.36573403 651.59171457 -484.73046875 653.734375 C-497.52072676 673.77072676 -497.52072676 673.77072676 -500.5625 676.8125 C-504.07665647 690.3268178 -503.65851533 704.3396963 -496.90234375 716.78125 C-489.48187416 728.03094151 -480.00154771 735.01073296 -466.98708606 738.1712478 C-461.14244599 739.26565403 -455.36819017 739.22287603 -449.43814087 739.19002342 C-448.04297542 739.19315939 -446.64781242 739.19760798 -445.25265479 739.20323652 C-441.43472077 739.21486346 -437.6170159 739.2079582 -433.79908583 739.19790266 C-429.63941367 739.19026821 -425.47977568 739.20008193 -421.32010841 739.20763266 C-414.03495065 739.21845397 -406.74985961 739.2181475 -399.46469879 739.21049118 C-388.63135818 739.19913689 -377.79807378 739.20494851 -366.96473354 739.2141161 C-347.61565379 739.22991064 -328.26660376 739.22854522 -308.91752118 739.21987936 C-291.9848262 739.21233296 -275.05214212 739.21036247 -258.1194458 739.2139473 C-256.99629859 739.21417645 -255.87315138 739.21440561 -254.7159694 739.21464171 C-250.15675884 739.21557572 -245.59754829 739.21653092 -241.03833774 739.217521 C-198.26868481 739.22669818 -155.4990508 739.21837731 -112.72940078 739.20223031 C-74.73039767 739.18799347 -36.73142472 739.18926736 1.26757812 739.20361328 C43.95896429 739.21967686 86.65033372 739.22604734 129.34172249 739.21677649 C133.89263026 739.21581434 138.44353803 739.21487582 142.9944458 739.2139473 C144.67527247 739.21359145 144.67527247 739.21359145 146.39005522 739.21322841 C163.31218577 739.20981587 180.23430423 739.21380706 197.15643311 739.22138596 C216.39747239 739.22996045 235.63847731 739.22782623 254.87951231 739.21154372 C265.6482895 739.2027314 276.41699226 739.20216484 287.18576752 739.21348225 C294.37882891 739.22020814 301.57183062 739.21602495 308.76488317 739.20296794 C312.86321607 739.19583142 316.96140108 739.19339185 321.05972934 739.20418589 C324.79242693 739.21391663 328.52484621 739.20970279 332.25752375 739.19464391 C334.2233123 739.19022533 336.18911741 739.20041638 338.15488076 739.21130675 C352.73749689 739.11910183 364.23588209 735.70835378 375.125 725.8125 C383.88280401 716.66580593 387.76230665 705.51290982 387.578125 693.00390625 C387.20402808 684.51398454 386.15075345 678.94434234 380.546875 672.42578125 C377.95688403 669.21707021 375.83822885 665.82482317 373.6875 662.3125 C372.8206907 660.90471498 371.95349643 659.49716693 371.0859375 658.08984375 C370.64733398 657.37812012 370.20873047 656.66639648 369.75683594 655.93310547 C367.65300887 652.55156552 365.48458944 649.21295481 363.3125 645.875 C358.65503789 638.70811487 354.04044786 631.51451223 349.4375 624.3125 C344.95521707 617.30090647 340.46697662 610.29371168 335.9375 603.3125 C330.70146056 595.24227407 325.52142403 587.13651525 320.33984375 579.03125 C316.55552177 573.11420766 312.76040498 567.20468382 308.9375 561.3125 C303.70146056 553.24227407 298.52142403 545.13651525 293.33984375 537.03125 C289.55552177 531.11420766 285.76040498 525.20468382 281.9375 519.3125 C276.70146056 511.24227407 271.52142403 503.13651525 266.33984375 495.03125 C262.55552177 489.11420766 258.76040498 483.20468382 254.9375 477.3125 C249.70146056 469.24227407 244.52142403 461.13651525 239.33984375 453.03125 C235.55552177 447.11420766 231.76040498 441.20468382 227.9375 435.3125 C222.70146056 427.24227407 217.52142403 419.13651525 212.33984375 411.03125 C208.55552177 405.11420766 204.76040498 399.20468382 200.9375 393.3125 C195.70146056 385.24227407 190.52142403 377.13651525 185.33984375 369.03125 C181.55552177 363.11420766 177.76040498 357.20468382 173.9375 351.3125 C168.70146056 343.24227407 163.52142403 335.13651525 158.33984375 327.03125 C154.55552177 321.11420766 150.76040498 315.20468382 146.9375 309.3125 C141.70146056 301.24227407 136.52142403 293.13651525 131.33984375 285.03125 C127.55552177 279.11420766 123.76040498 273.20468382 119.9375 267.3125 C115.40802277 260.33128739 110.91991697 253.32400864 106.4375 246.3125 C100.13677192 236.4577986 93.80452558 226.62446267 87.4375 216.8125 C80.36422415 205.91216392 73.34014936 194.98134665 66.34106445 184.03320312 C62.55636585 178.1154902 58.76082286 172.2053279 54.9375 166.3125 C49.70146056 158.24227407 44.52142403 150.13651525 39.33984375 142.03125 C35.55552177 136.11420766 31.76040498 130.20468382 27.9375 124.3125 C22.70433571 116.2467055 17.52673328 108.14565529 12.34863281 100.04443359 C8.48086554 93.99609976 4.59678917 87.95906057 0.6875 81.9375 C-1.06469508 79.23058112 -2.81378238 76.52166618 -4.5625 73.8125 C-5.06797363 73.03148926 -5.57344727 72.25047852 -6.09423828 71.44580078 C-16.36146544 55.54744995 -16.36146544 55.54744995 -19.875 48.0625 C-24.03573 39.36499735 -30.95539792 33.50927636 -39.859375 29.875 C-59.66026803 22.96462123 -77.37681856 28.75352586 -91.5625 43.8125 Z " fill="#050505" transform="translate(547.5625,18.1875)"/>
<path d="M0 0 C9.00922289 7.41668349 14.87001857 16.71842815 16.6953125 28.28515625 C17.44093711 41.23617742 15.90293387 54.19577313 14.72338867 67.07592773 C14.51096758 69.44931775 14.29910457 71.82275777 14.0877533 74.19624329 C13.51552485 80.60124105 12.93471477 87.00543221 12.35166717 93.40945315 C11.98721972 97.41441226 11.62535294 101.41960184 11.26412392 105.42485237 C11.14228292 106.77560037 11.02044111 108.12634829 10.89859849 109.47709614 C10.83793647 110.14959607 10.77727444 110.822096 10.71477417 111.51497472 C9.57125128 124.18790898 8.41880228 136.86001986 7.26370368 149.53190345 C6.20836607 161.11268957 5.16496834 172.69451595 4.12705191 184.27687525 C3.05869829 196.19754187 1.98195836 208.11742446 0.896303 220.03652817 C0.28793624 226.71735814 -0.31686972 233.39846369 -0.91318703 240.08038139 C-1.47362168 246.35637804 -2.04490261 252.63129417 -2.6245327 258.90554619 C-2.83523307 261.20618548 -3.0420944 263.50718011 -3.24481201 265.80853653 C-3.52235085 268.95234988 -3.81379325 272.09457808 -4.10871887 275.23680115 C-4.18558121 276.14487611 -4.26244355 277.05295107 -4.34163505 277.98854345 C-5.18865178 286.70049928 -7.47523533 294.40467124 -14.3046875 300.28515625 C-20.29749111 304.06585115 -27.45169593 304.08767763 -34.3046875 303.28515625 C-40.59729574 301.60775917 -44.73939442 298.842819 -48.3046875 293.28515625 C-50.971719 287.01227386 -51.93152706 280.80465345 -52.50065613 274.05839539 C-52.59305755 273.06686913 -52.68545898 272.07534287 -52.78066045 271.05377036 C-53.08565813 267.75243616 -53.37522811 264.44993745 -53.66479492 261.1472168 C-53.88106889 258.77121785 -54.09828172 256.3953042 -54.31636047 254.01947021 C-54.84357888 248.24818085 -55.3607643 242.47605735 -55.87323638 236.70344122 C-56.47140337 229.9703669 -57.08098822 223.23834072 -57.69098393 216.50632951 C-58.77971158 204.48653921 -59.85799173 192.46583462 -60.93041992 180.44458008 C-61.96913798 168.80128714 -63.01540482 157.15870527 -64.07006836 145.5168457 C-64.16745696 144.44180984 -64.16745696 144.44180984 -64.266813 143.34505608 C-64.33163103 142.62956035 -64.39644906 141.91406463 -64.46323127 141.17688721 C-65.66635169 127.8955264 -66.86236579 114.61353386 -68.05509123 101.33123576 C-68.47581267 96.64782437 -68.89861087 91.96460311 -69.32207298 87.28143883 C-69.89271034 80.9658596 -70.45781815 74.64980842 -71.01873589 68.33335876 C-71.22490695 66.02098096 -71.43287151 63.70876222 -71.64280319 61.39672279 C-75.29600413 21.11703359 -75.29600413 21.11703359 -61.6171875 4.59765625 C-45.32023914 -12.95525993 -18.79983943 -13.9883551 0 0 Z " fill="#040404" transform="translate(518.3046875,231.71484375)"/>
<path d="M0 0 C1.21634835 0.82159027 2.42575673 1.65363751 3.625 2.5 C4.8934375 3.3353125 4.8934375 3.3353125 6.1875 4.1875 C14.5318618 12.10394581 20.0343805 22.93601722 20.828125 34.4453125 C21.04487046 49.14787973 16.89229528 60.61964719 6.859375 71.42578125 C-1.95416612 79.60758254 -13.98588287 83.92157961 -25.9765625 83.71484375 C-39.43747436 82.50906174 -50.19877921 77.40202357 -59.375 67.5 C-67.37791893 56.53303703 -70.42963021 44.98738356 -69.375 31.5 C-67.20649071 20.64506206 -62.6219471 11.92225239 -54.375 4.5 C-53.50875 3.675 -52.6425 2.85 -51.75 2 C-37.05074512 -10.09626183 -15.6483355 -9.3600229 0 0 Z " fill="#060606" transform="translate(514.375,585.5)"/>
<path d="M0 0 C0.66 0.33 1.32 0.66 2 1 C-1.96 4.96 -5.92 8.92 -10 13 C-10.66 12.67 -11.32 12.34 -12 12 C-10.75479583 10.55834372 -9.50362077 9.12184348 -8.25 7.6875 C-7.55390625 6.88699219 -6.8578125 6.08648437 -6.140625 5.26171875 C-4.20854665 3.22034399 -2.30056874 1.60107149 0 0 Z " fill="#656565" transform="translate(465,229)"/>
<path d="M0 0 C0.66 0.33 1.32 0.66 2 1 C-0.97 3.97 -3.94 6.94 -7 10 C-7.66 9.67 -8.32 9.34 -9 9 C-6 6 -3 3 0 0 Z " fill="#6B6B6B" transform="translate(464,586)"/>
</svg>
